<?xml version="1.0" standalone="no"?>
<!DOCTYPE svg PUBLIC "-//W3C//DTD SVG 20010904//EN"
 "http://www.w3.org/TR/2001/REC-SVG-20010904/DTD/svg10.dtd">
<svg version="1.0" xmlns="http://www.w3.org/2000/svg"
 width="64.000000pt" height="64.000000pt" viewBox="0 0 64.000000 64.000000"
 preserveAspectRatio="xMidYMid meet">

<g transform="translate(0.000000,64.000000) scale(0.100000,-0.100000)"
fill="#000000" stroke="none">
<path d="M10 615 c-24 -29 -4 -45 54 -45 55 0 55 0 62 -35 3 -19 10 -38 15
-41 11 -6 11 11 3 54 -6 30 -9 31 -62 34 -80 4 -83 28 -3 28 52 0 63 -3 75
-22 12 -20 76 -269 76 -298 0 -6 -11 -16 -25 -22 -18 -8 -25 -18 -23 -32 3
-20 10 -21 118 -22 l115 0 -104 5 c-70 4 -106 10 -109 18 -2 7 3 13 12 13 9 0
21 9 28 20 12 19 24 20 175 20 145 0 162 2 167 18 7 23 56 233 56 238 0 2
-101 4 -225 4 l-225 0 -6 25 c-3 14 -16 32 -27 40 -29 20 -130 20 -147 0z
m250 -99 c0 -8 3 -22 6 -31 6 -14 1 -16 -27 -13 -29 2 -34 7 -37 31 -3 24 0
27 27 27 20 0 31 -5 31 -14z m80 7 c0 -5 3 -18 6 -30 6 -20 3 -23 -24 -23 -29
0 -42 14 -42 46 0 14 60 21 60 7z m110 -23 c0 -28 -2 -30 -39 -30 -26 0 -41 5
-45 16 -14 36 -7 44 39 44 43 0 45 -1 45 -30z m78 3 c-2 -22 -9 -29 -30 -31
-25 -3 -28 0 -28 27 0 28 3 31 31 31 27 0 30 -3 27 -27z m83 0 c-6 -22 -14
-29 -38 -31 -28 -3 -29 -1 -25 27 4 27 8 31 37 31 31 0 33 -2 26 -27z m-333
-86 c3 -26 1 -28 -24 -25 -21 2 -30 10 -35 31 -7 27 -6 28 24 25 27 -2 33 -8
35 -31z m72 3 c0 -25 -4 -30 -24 -30 -19 0 -25 6 -28 30 -4 27 -2 30 24 30 24
0 28 -4 28 -30z m90 0 c0 -28 -3 -30 -35 -30 -32 0 -35 2 -35 30 0 28 3 30 35
30 32 0 35 -2 35 -30z m76 14 c-3 -9 -6 -22 -6 -30 0 -8 -10 -14 -25 -14 -21
0 -25 5 -25 30 0 27 3 30 31 30 24 0 30 -3 25 -16z m76 -14 c-4 -25 -9 -30
-33 -30 -18 0 -29 5 -29 14 0 31 13 46 39 46 25 0 27 -3 23 -30z m-302 -57 c0
-5 3 -18 7 -31 5 -21 3 -23 -22 -20 -21 2 -31 10 -36 31 -7 25 -5 27 22 27 16
0 29 -3 29 -7z m70 -23 c0 -23 -4 -30 -20 -30 -11 0 -20 3 -20 8 0 4 -3 17 -6
30 -5 19 -2 22 20 22 22 0 26 -4 26 -30z m80 23 c-1 -33 -15 -53 -36 -53 -20
0 -24 5 -24 30 0 27 3 30 30 30 17 0 30 -3 30 -7z m58 -20 c-2 -20 -9 -29 -25
-31 -18 -3 -23 1 -23 21 0 29 7 37 32 37 15 0 19 -6 16 -27z m78 11 c-3 -9 -6
-22 -6 -30 0 -9 -11 -14 -31 -14 -24 0 -30 3 -25 16 3 9 6 22 6 30 0 9 11 14
31 14 24 0 30 -3 25 -16z"/>
<path d="M161 394 c20 -76 20 -77 1 -98 -11 -11 -23 -31 -26 -43 -12 -38 28
-92 67 -93 17 0 17 -2 3 -22 -18 -25 -21 -64 -6 -73 6 -4 10 7 10 24 0 61 68
93 110 51 54 -54 -12 -136 -81 -100 -12 7 -19 7 -19 1 0 -14 34 -31 60 -31 29
0 80 53 80 82 0 13 -7 34 -16 46 l-15 22 61 0 c57 0 60 -1 50 -19 -24 -45 -10
-95 32 -117 75 -39 149 40 108 117 -9 16 -7 19 8 19 25 0 44 23 36 44 -5 13
-22 16 -103 14 l-96 -2 89 -5 c58 -4 91 -10 94 -18 3 -10 -44 -13 -212 -13
-211 0 -215 0 -230 22 -23 32 -20 54 11 78 l27 21 -20 81 c-10 45 -24 83 -31
85 -7 3 -5 -22 8 -73z m394 -254 c22 -25 22 -65 0 -90 -37 -40 -105 -13 -105
42 0 61 66 91 105 48z"/>
<path d="M482 128 c-16 -16 -15 -53 3 -68 19 -16 45 -10 61 15 26 39 -31 86
-64 53z m51 -20 c7 -21 -4 -38 -23 -38 -10 0 -20 6 -23 13 -7 20 4 37 23 37
10 0 20 -6 23 -12z"/>
<path d="M242 128 c-28 -28 -7 -78 33 -78 40 0 61 50 33 78 -7 7 -21 12 -33
12 -12 0 -26 -5 -33 -12z m56 -31 c4 -20 -25 -34 -40 -19 -15 15 -1 44 19 40
10 -2 19 -11 21 -21z"/>
</g>
</svg>
