<?xml version="1.0" standalone="no"?>
<!DOCTYPE svg PUBLIC "-//W3C//DTD SVG 20010904//EN"
 "http://www.w3.org/TR/2001/REC-SVG-20010904/DTD/svg10.dtd">
<svg version="1.0" xmlns="http://www.w3.org/2000/svg"
 width="200.000000pt" height="220.000000pt" viewBox="0 0 200.000000 220.000000"
 preserveAspectRatio="xMidYMid meet">

<g transform="translate(0.000000,220.000000) scale(0.100000,-0.100000)"
fill="#000000" stroke="none">
<path d="M619 2176 c-60 -21 -96 -54 -124 -110 -35 -71 -42 -144 -21 -226 36
-142 143 -240 262 -240 173 0 264 221 171 419 -29 63 -105 135 -163 155 -56
19 -77 19 -125 2z"/>
<path d="M1256 2174 c-67 -21 -146 -103 -176 -181 -58 -150 -7 -330 107 -379
182 -78 390 153 343 380 -30 144 -146 221 -274 180z"/>
<path d="M275 1669 c-45 -17 -103 -77 -122 -128 -25 -64 -22 -160 7 -236 30
-81 124 -175 193 -194 103 -29 196 9 244 102 73 141 -3 364 -151 439 -46 24
-130 32 -171 17z"/>
<path d="M1600 1671 c-83 -26 -165 -106 -200 -197 -70 -180 9 -359 165 -372
196 -16 361 249 279 448 -40 96 -149 150 -244 121z"/>
<path d="M904 1572 c-62 -22 -101 -51 -136 -103 -27 -40 -36 -66 -77 -206 -23
-77 -51 -118 -169 -243 -84 -90 -114 -145 -120 -215 -8 -103 38 -168 143 -201
51 -16 64 -17 156 -3 l101 14 23 54 22 54 -21 36 c-11 20 -28 43 -38 53 -21
21 -40 90 -31 114 4 11 2 15 -4 11 -5 -4 -18 0 -29 7 -16 12 -17 17 -6 41 18
40 -6 66 -54 58 -26 -4 -34 -2 -34 10 0 29 27 42 130 62 l103 19 15 -22 c8
-12 20 -22 26 -22 15 0 38 -38 31 -50 -4 -6 -2 -10 4 -10 5 0 13 5 16 10 4 6
38 9 85 6 66 -3 78 -2 73 11 -3 9 2 16 14 19 10 3 23 15 28 27 8 17 18 22 43
20 45 -2 166 -63 170 -86 3 -15 0 -16 -22 -6 -38 18 -58 -2 -50 -51 4 -27 2
-45 -10 -61 -9 -13 -16 -36 -16 -51 0 -16 -4 -28 -10 -28 -5 0 -10 -6 -10 -14
0 -8 -7 -22 -16 -30 -22 -23 -21 -45 5 -100 13 -26 24 -58 25 -70 1 -18 10
-22 66 -30 154 -21 270 60 270 187 0 83 -25 130 -131 242 -118 126 -140 161
-174 284 -31 112 -53 158 -97 201 -75 75 -187 99 -294 62z"/>
<path d="M656 505 c-50 -50 -19 -155 47 -155 10 0 30 12 44 26 22 22 25 32 20
70 -2 24 -10 51 -17 59 -16 19 -74 19 -94 0z m84 -24 c14 -28 12 -63 -6 -89
-19 -28 -49 -28 -68 0 -18 26 -20 46 -6 82 12 33 64 37 80 7z"/>
<path d="M810 435 l0 -85 44 0 c25 0 48 5 51 10 4 6 -10 10 -34 10 l-41 0 0
75 c0 43 -4 75 -10 75 -6 0 -10 -35 -10 -85z"/>
<path d="M932 438 c4 -106 22 -105 26 2 2 67 0 80 -13 80 -13 0 -15 -13 -13
-82z"/>
<path d="M1067 503 c-27 -31 -26 -104 3 -133 46 -46 110 -10 110 63 0 57 -22
87 -64 87 -19 0 -40 -8 -49 -17z m81 -15 c17 -17 15 -84 -4 -102 -36 -37 -74
-8 -74 56 0 39 15 58 45 58 12 0 26 -5 33 -12z"/>
<path d="M1220 435 l0 -85 50 0 c28 0 50 5 50 10 0 6 -18 10 -40 10 l-40 0 0
75 c0 43 -4 75 -10 75 -6 0 -10 -35 -10 -85z"/>
<path d="M1350 434 c0 -54 4 -83 10 -79 6 3 10 42 10 86 0 46 -4 79 -10 79 -6
0 -10 -35 -10 -86z"/>
<path d="M740 267 c-16 -8 -26 -23 -28 -40 -2 -15 -8 -27 -13 -27 -5 0 -9 -11
-9 -25 0 -14 5 -25 10 -25 6 0 10 -24 10 -54 0 -75 30 -103 81 -76 26 15 26
50 -1 43 -18 -5 -20 0 -20 41 0 39 3 46 20 46 15 0 20 7 20 25 0 18 -5 25 -19
25 -16 0 -20 8 -23 40 -3 39 -4 39 -28 27z"/>
<path d="M890 267 c-13 -7 -31 -25 -40 -40 -23 -41 1 -77 68 -101 38 -13 52
-24 50 -35 -5 -24 -43 -25 -66 -1 -16 17 -24 19 -46 10 -29 -11 -28 -18 7 -57
26 -29 68 -37 112 -23 39 13 55 35 55 78 0 34 -22 57 -71 73 -42 15 -61 28
-53 40 8 14 40 11 53 -5 12 -14 47 -11 57 5 10 16 -15 47 -47 58 -40 14 -48
14 -79 -2z"/>
<path d="M1103 267 c-16 -7 -23 -19 -23 -39 0 -18 -5 -28 -15 -28 -9 0 -15 -9
-15 -25 0 -16 6 -25 15 -25 12 0 15 -13 15 -60 0 -50 3 -61 21 -70 32 -18 69
-4 69 24 0 17 -5 23 -17 22 -14 -1 -19 8 -21 42 -3 37 -1 42 17 42 16 0 21 6
21 25 0 18 -5 25 -19 25 -16 0 -20 8 -23 39 -3 36 -5 37 -25 28z"/>
<path d="M280 145 l0 -125 30 0 c29 0 30 2 30 45 l0 45 49 0 c42 0 53 4 70 26
28 36 27 79 -4 109 -21 22 -33 25 -100 25 l-75 0 0 -125z m135 55 c11 -18 -15
-40 -46 -40 -24 0 -29 4 -29 25 0 22 4 25 34 25 19 0 38 -5 41 -10z"/>
<path d="M523 186 c-24 -21 -28 -32 -28 -75 0 -39 5 -56 23 -73 28 -28 93 -31
119 -5 16 16 16 18 1 34 -14 13 -20 14 -32 4 -8 -7 -24 -10 -36 -6 -37 12 -21
24 38 27 l57 3 -3 35 c-5 72 -84 103 -139 56z m82 -36 c4 -6 -7 -10 -25 -10
-18 0 -29 4 -25 10 3 6 15 10 25 10 10 0 22 -4 25 -10z"/>
<path d="M1233 186 c-24 -21 -28 -32 -28 -74 0 -57 20 -87 64 -97 70 -15 124
52 102 127 -21 68 -86 89 -138 44z m82 -56 c9 -29 -4 -60 -25 -60 -21 0 -36
39 -26 65 8 22 44 18 51 -5z"/>
<path d="M1453 203 l-43 -4 0 -90 0 -89 30 0 c29 0 29 1 32 63 3 62 3 62 33
62 24 1 31 6 33 24 4 23 -13 42 -33 39 -5 -1 -29 -3 -52 -5z"/>
<path d="M1579 181 c-62 -62 -24 -166 60 -166 25 0 47 7 58 18 16 16 16 18 1
33 -13 13 -19 14 -35 3 -22 -13 -53 -7 -53 11 0 6 24 10 55 10 l55 0 0 39 c0
77 -85 108 -141 52z m81 -31 c0 -5 -12 -10 -26 -10 -14 0 -23 4 -19 10 3 6 15
10 26 10 10 0 19 -4 19 -10z"/>
</g>
</svg>
